<svg width="41" height="40" viewBox="0 0 41 40" fill="none" xmlns="http://www.w3.org/2000/svg">
<path fill-rule="evenodd" clip-rule="evenodd" d="M36.4784 17.2902C35.1837 9.74417 28.5744 4 20.6157 4C12.6269 4 5.99775 9.78771 4.73853 17.3759C4.36518 17.2114 3.952 17.12 3.51736 17.12C1.85092 17.12 0.5 18.4631 0.5 20.12C0.5 21.7769 1.85092 23.12 3.51736 23.12C3.96703 23.12 4.39373 23.0222 4.77711 22.8468C6.12788 30.3252 12.7053 36 20.6157 36C28.4949 36 35.0516 30.37 36.4381 22.9354C36.7635 23.0548 37.1154 23.12 37.4826 23.12C39.1491 23.12 40.5 21.7769 40.5 20.12C40.5 18.4631 39.1491 17.12 37.4826 17.12C37.1306 17.12 36.7926 17.18 36.4784 17.2902Z" fill="#FFEBD5" stroke="#263238" stroke-linecap="round" stroke-linejoin="round"/>
<path d="M16.3093 17.6964C16.3093 16.465 15.3184 15.4668 14.0961 15.4668C12.8737 15.4668 11.8828 16.465 11.8828 17.6964" stroke="#263238" stroke-linecap="round" stroke-linejoin="round"/>
<path d="M28.9558 17.6964C28.9558 16.465 27.9649 15.4668 26.7426 15.4668C25.5202 15.4668 24.5293 16.465 24.5293 17.6964" stroke="#263238" stroke-linecap="round" stroke-linejoin="round"/>
<path fill-rule="evenodd" clip-rule="evenodd" d="M15.9922 23.1113H24.8452C24.8452 25.5741 22.8634 27.5706 20.4187 27.5706C17.974 27.5706 15.9922 25.5741 15.9922 23.1113Z" stroke="#263238" stroke-linecap="round" stroke-linejoin="round"/>
<path d="M20.9193 9.50126C23.1573 8.4916 22.0345 6.33583 20.6024 6.33583C19.2795 6.33583 18.207 7.41616 18.207 8.74885C18.207 10.3481 19.494 11.6445 21.0814 11.6445C22.9864 11.6445 24.5306 10.0888 24.5306 8.16972C24.5306 5.86683 22.6775 4 20.3916 4" stroke="#263238" stroke-linecap="round" stroke-linejoin="round"/>
</svg>
