<svg width="32" height="32" viewBox="0 0 32 32" fill="none" xmlns="http://www.w3.org/2000/svg">
<path d="M15.9978 27.556C16.4353 27.5459 16.8551 27.3815 17.183 27.0917C17.5109 26.8019 17.7257 26.4056 17.7895 25.9727H14.1367C14.2023 26.4173 14.4272 26.823 14.7696 27.1143C15.1119 27.4055 15.5484 27.5625 15.9978 27.556Z" fill="black"/>
<path d="M12.5008 20.75V21.75C12.5008 23.4069 13.8439 24.25 15.5008 24.25C17.1576 24.25 18.5008 23.4069 18.5008 21.75V20.75M9.50078 11.75C9.50078 8.43629 12.1871 6.75 15.5008 6.75C18.8145 6.75 21.5008 8.43629 21.5008 11.75C21.5008 13.6892 22.2058 15.8633 22.9324 17.5889C23.5356 19.0217 22.523 20.75 20.9684 20.75H10.0332C8.47857 20.75 7.46598 19.0217 8.06921 17.5889C8.79572 15.8633 9.50078 13.6892 9.50078 11.75Z" stroke="black" stroke-width="1.5" stroke-linecap="round" stroke-linejoin="round"/>
<path d="M23.3058 7.91656C23.3058 9.55807 21.9751 10.8888 20.3335 10.8888C18.692 10.8888 17.3613 9.55807 17.3613 7.91656C17.3613 6.27504 18.692 4.94434 20.3335 4.94434C21.9751 4.94434 23.3058 6.27504 23.3058 7.91656Z" fill="#FF2D05" stroke="#FFEFF7"/>
</svg>
