<svg width="75" height="58" viewBox="0 0 75 58" fill="none" xmlns="http://www.w3.org/2000/svg">
<path d="M4.32274 32.67L2.98068 35.7996L3.93216 36.1385L5.27423 33.009L4.32274 32.67Z" fill="#FFDF36"/>
<path d="M46.0465 13.7442L45.2855 14.3654L47.745 16.8684L48.506 16.2472L46.0465 13.7442Z" fill="#E98862"/>
<path d="M57.3234 24.9471L54.3728 26.9616L54.9854 27.7069L57.9359 25.6925L57.3234 24.9471Z" fill="#367CFF"/>
<path d="M13.1528 17.2233L14.0021 17.7407L16.051 14.9472L15.2017 14.4297L13.1528 17.2233Z" fill="#FFDF36"/>
<path d="M74.114 4.65339L72.2765 7.56656L73.1622 8.03064L74.9996 5.11746L74.114 4.65339Z" fill="#0CBC8B"/>
<path d="M39.5864 8.40346L40.2667 9.09814L43.017 6.86064L42.3367 6.16596L39.5864 8.40346Z" fill="#0CBC8B"/>
<path d="M58.5482 41.33L57.6343 41.7462L59.2819 44.7521L60.1958 44.336L58.5482 41.33Z" fill="#0CBC8B"/>
<path d="M45.1778 33.4204L44.1191 36.639L45.0976 36.9063L46.1562 33.6877L45.1778 33.4204Z" fill="#367CFF"/>
<path d="M2.93796 5.00828L6.39334 6.17931L6.74937 5.30655L3.29399 4.13551L2.93796 5.00828Z" fill="#0CBC8B"/>
<path d="M9.5067 21.5301L8.55522 21.8691L9.89728 24.9987L10.8488 24.6597L9.5067 21.5301Z" fill="#0CBC8B"/>
<path d="M28.9876 4.72765L29.8951 5.15532L31.5881 2.17046L30.6805 1.74279L28.9876 4.72765Z" fill="#AC25FF"/>
<path d="M23.3532 2.7416L20.6684 5.04438L21.3685 5.72249L24.0533 3.41971L23.3532 2.7416Z" fill="#367CFF"/>
<path d="M53.0907 0.000302222L52.2051 0.464381L54.0425 3.37756L54.9281 2.91348L53.0907 0.000302222Z" fill="#367CFF"/>
<path d="M16.967 36.5768L14.9996 39.4184L15.8636 39.9153L17.8309 37.0737L16.967 36.5768Z" fill="#0CBC8B"/>
<path d="M8.25242 44.3605L7.6834 45.1343L10.7469 47.0059L11.3159 46.2321L8.25242 44.3605Z" fill="#367CFF"/>
<path d="M0.885669 18.5039L0 18.968L1.83729 21.8811L2.72296 21.417L0.885669 18.5039Z" fill="#AC25FF"/>
<path d="M26.7082 21.2757L29.8225 23.0738L30.3691 22.2871L27.2548 20.4891L26.7082 21.2757Z" fill="#367CFF"/>
<path d="M66.4704 43.4047L64.8229 46.4106L65.7368 46.8268L67.3843 43.8209L66.4704 43.4047Z" fill="#0CBC8B"/>
<path d="M63.6392 20.7394L65.5833 17.1684C65.626 17.0899 65.6861 17.0204 65.7599 16.9643C65.8337 16.9082 65.9196 16.8667 66.0119 16.8425C66.1043 16.8183 66.2011 16.8119 66.2964 16.8237C66.3916 16.8354 66.4831 16.8652 66.565 16.9109C66.7135 16.9997 66.8205 17.1355 66.8653 17.2921C66.9102 17.4487 66.8896 17.6148 66.8076 17.7584L66.3907 18.5241L68.9139 16.665C69.1905 16.4537 69.6782 16.3559 69.9176 16.6543C70.018 16.7636 70.0747 16.9008 70.0786 17.0433C70.0825 17.1859 70.0332 17.3254 69.9389 17.4391C69.9417 17.441 69.9444 17.4432 69.9467 17.4455C69.9481 17.4476 69.9494 17.4497 69.9504 17.4519L70.377 17.126C70.4561 17.0657 70.5489 17.0223 70.6487 16.9988C70.7485 16.9754 70.8528 16.9725 70.9539 16.9905C71.0551 17.0084 71.1506 17.0467 71.2335 17.1026C71.3164 17.1584 71.3845 17.2304 71.433 17.3133C71.5064 17.4453 71.5279 17.5962 71.4939 17.7409C71.4599 17.8855 71.3725 18.0152 71.2462 18.1082L71.0646 18.2468C71.0666 18.2534 71.0673 18.2603 71.0665 18.2671C71.213 18.1994 71.3811 18.1814 71.5408 18.2163C71.7004 18.2513 71.8413 18.3368 71.9382 18.4577C72.0398 18.5928 72.0818 18.758 72.0558 18.9201C72.0298 19.0822 71.9376 19.2295 71.7977 19.3324L71.3468 19.6765C71.3569 19.6757 71.3671 19.6772 71.3766 19.6807C71.386 19.6842 71.3943 19.6897 71.4009 19.6968C71.4083 19.7056 71.4127 19.7162 71.4137 19.7272C71.5625 19.6999 71.7171 19.7179 71.8535 19.7785C71.99 19.8391 72.1009 19.9389 72.169 20.0625C72.2377 20.1937 72.2559 20.3421 72.2205 20.4838C72.1851 20.6256 72.0983 20.7523 71.974 20.8434L68.1699 23.7479C67.6378 24.1542 66.9846 24.4064 66.2941 24.4722C65.6036 24.5379 64.9074 24.4142 64.2945 24.1169C63.7662 23.8606 63.3683 23.4267 63.1854 22.9072C63.0024 22.3878 63.0489 21.8239 63.3148 21.3351L63.6392 20.7394Z" fill="#E98862"/>
<g opacity="0.2">
<path d="M67.4509 19.2898C67.4617 19.3015 67.4772 19.3089 67.4939 19.3103C67.5106 19.3117 67.5273 19.3071 67.5403 19.2973L69.9377 17.5261C69.9509 17.5163 69.9592 17.5023 69.961 17.4869C69.9628 17.4715 69.9578 17.4562 69.9471 17.4442C69.9364 17.4322 69.921 17.4246 69.9041 17.423C69.8873 17.4213 69.8704 17.4259 69.8573 17.4356L67.4599 19.2069C67.4468 19.2166 67.4385 19.2306 67.4367 19.2459C67.435 19.2611 67.4399 19.2764 67.4504 19.2884L67.4509 19.2898Z" fill="#0C0C0C"/>
</g>
<g opacity="0.2">
<path d="M68.28 20.2755C68.2909 20.2872 68.3063 20.2946 68.3231 20.296C68.3398 20.2974 68.3565 20.2927 68.3694 20.283L71.045 18.3063C71.058 18.2965 71.0663 18.2825 71.068 18.2673C71.0698 18.252 71.0648 18.2367 71.0543 18.2248C71.0433 18.2133 71.028 18.2061 71.0114 18.2045C70.9949 18.2029 70.9782 18.207 70.9649 18.2162L68.2885 20.1925C68.2754 20.2022 68.2671 20.2162 68.2654 20.2315C68.2636 20.2467 68.2685 20.262 68.279 20.274L68.28 20.2755Z" fill="#0C0C0C"/>
</g>
<g opacity="0.2">
<path d="M69.1695 21.3475C69.1803 21.3592 69.1958 21.3666 69.2125 21.368C69.2293 21.3694 69.2459 21.3648 69.2589 21.355L71.3931 19.7783C71.4063 19.7685 71.4147 19.7545 71.4164 19.7391C71.4182 19.7237 71.4132 19.7084 71.4025 19.6964C71.3919 19.6844 71.3764 19.6768 71.3596 19.6752C71.3427 19.6735 71.3259 19.6781 71.3127 19.6878L69.178 21.2646C69.1649 21.2743 69.1566 21.2883 69.1548 21.3036C69.1531 21.3188 69.158 21.3341 69.1685 21.3461L69.1695 21.3475Z" fill="#0C0C0C"/>
</g>
<path d="M20.0105 17.6766C20.0105 17.6766 19.7364 21.4262 18.8109 22.7862C16.1464 26.7026 15.3744 31.1083 18.0427 33.4102C20.7109 35.7121 37.7299 35.744 39.0192 30.4498C40.1047 25.9925 37.7753 25.5132 37.2085 21.8367C36.9521 20.173 36.2465 16.6843 36.2465 16.6843" fill="#0A0A0A"/>
<path d="M34.6148 29.6745C34.5855 29.671 34.2595 34.6015 27.9753 34.1717C23.6249 33.8745 22.0738 29.6673 21.9742 29.6673C22.4432 29.5764 23.233 29.4443 23.4413 29.3429C24.1264 29.0074 24.9737 28.6583 25.1948 27.4457C25.3225 26.7473 25.1061 23.1715 25.1726 22.4641L31.8504 23.8231C31.7571 25.3165 31.104 28.7785 33.393 29.3912C33.7738 29.4928 34.1841 29.586 34.6148 29.6745Z" fill="#E98862"/>
<path opacity="0.5" d="M31.9443 27.9761C31.8397 27.6689 31.7723 27.3521 31.7434 27.0315C31.67 26.2998 31.6847 25.5631 31.7871 24.8343C30.4299 24.6673 29.1513 24.1567 28.0966 23.3604C27.9726 23.7778 27.2906 25.6017 27.4794 25.9984C27.8361 26.7483 29.5131 27.9761 31.9443 27.9761Z" fill="#0C0C0C"/>
<path d="M31.0801 26.4397C28.4473 26.6725 25.0408 25.712 24.3351 22.5162L23.6984 19.6327C22.9928 16.437 24.2622 13.5086 27.5633 12.903C30.8646 12.2977 33.904 14.4353 34.6097 17.6311L34.8917 18.9077C35.1624 20.1339 35.7775 26.0253 31.0801 26.4397Z" fill="#E98862"/>
<path opacity="0.1" d="M29.4071 22.2525C29.8404 22.2054 30.1609 21.9324 30.123 21.6427C30.0851 21.3531 29.7031 21.1564 29.2698 21.2036C28.8365 21.2507 28.5161 21.5237 28.554 21.8134C28.5919 22.103 28.9739 22.2996 29.4071 22.2525Z" fill="#0C0C0C"/>
<path opacity="0.1" d="M33.9843 21.0943C34.0226 21.3835 34.4051 21.5799 34.8383 21.5333C34.9132 21.5251 34.9869 21.5099 35.0584 21.4878C35.0785 21.1429 35.0797 20.8112 35.0687 20.504C34.9484 20.4766 34.8235 20.4699 34.7004 20.4844C34.2671 20.5309 33.9468 20.8039 33.9843 21.0943Z" fill="#0C0C0C"/>
<path opacity="0.5" d="M32.0692 21.9882C32.0714 21.988 32.0735 21.9876 32.0756 21.9872C32.2094 21.9618 32.3416 21.9297 32.4715 21.891C32.6653 21.8318 32.9184 21.7348 32.8837 21.575C32.8436 21.3929 31.8621 19.5287 31.7508 19.3169C31.7462 19.3074 31.7396 19.2988 31.7313 19.2916C31.723 19.2844 31.7132 19.2789 31.7025 19.2752C31.6917 19.2716 31.6803 19.2699 31.6689 19.2704C31.6575 19.2709 31.6463 19.2735 31.636 19.278C31.6257 19.2825 31.6165 19.2888 31.6089 19.2967C31.6014 19.3045 31.5956 19.3136 31.592 19.3235C31.5884 19.3334 31.5871 19.3439 31.588 19.3543C31.589 19.3646 31.5922 19.3748 31.5975 19.384C32.016 20.1779 32.69 21.4832 32.7171 21.6058C32.6959 21.6629 32.3743 21.7746 32.0424 21.8356C32.0314 21.8372 32.0209 21.8408 32.0114 21.8461C32.0019 21.8514 31.9936 21.8584 31.9871 21.8667C31.9806 21.8749 31.9759 21.8842 31.9733 21.8941C31.9708 21.904 31.9703 21.9143 31.9721 21.9243C31.9739 21.9343 31.9778 21.944 31.9837 21.9526C31.9895 21.9613 31.9972 21.9688 32.0063 21.9747C32.0153 21.9807 32.0255 21.9849 32.0364 21.9873C32.0472 21.9896 32.0585 21.99 32.0695 21.9884L32.0692 21.9882Z" fill="#0C0C0C"/>
<path d="M21.0643 20.6687L24.0238 20.1417C26.2594 19.2896 26.8937 15.7384 26.8937 15.7384C26.8937 15.7384 29.6527 18.1334 36.2468 16.6851C36.2468 16.6851 34.8144 8.29481 25.0777 10.8422C21.9383 11.6633 19.7144 14.5801 20.0451 18.4435C20.2769 21.1501 21.0643 20.6687 21.0643 20.6687Z" fill="#0A0A0A"/>
<path d="M24.7542 23.4528C23.751 23.6368 22.7218 22.8077 22.5195 21.8931C22.3172 20.9785 23.0196 20.3253 24.0228 20.1412L24.675 20.6591L25.6166 23.2944L24.7542 23.4528Z" fill="#E98862"/>
<path d="M32.4638 17.8298C32.7148 17.6681 33.0083 17.5698 33.3145 17.5449C33.4684 17.5315 33.6236 17.5393 33.7749 17.5682C33.9275 17.5965 34.0755 17.6422 34.2156 17.7041L34.2199 17.706C34.2355 17.7122 34.253 17.7127 34.2689 17.7073C34.2848 17.7019 34.2978 17.691 34.305 17.677C34.3122 17.663 34.3131 17.647 34.3076 17.6324C34.302 17.6178 34.2904 17.6057 34.2752 17.5988C34.1268 17.5274 33.9691 17.4732 33.8058 17.4377C33.6414 17.4013 33.4719 17.3876 33.3031 17.3971C32.961 17.4143 32.6303 17.5148 32.3453 17.6881C32.3347 17.6946 32.3256 17.703 32.3185 17.7128C32.3115 17.7226 32.3066 17.7335 32.3042 17.745C32.3018 17.7565 32.3019 17.7683 32.3045 17.7798C32.3071 17.7912 32.3122 17.8021 32.3194 17.8117C32.3266 17.8214 32.3359 17.8297 32.3466 17.8361C32.3573 17.8425 32.3693 17.8469 32.382 17.8491C32.3946 17.8513 32.4075 17.8511 32.4201 17.8487C32.4326 17.8463 32.4446 17.8417 32.4551 17.8351L32.4574 17.8337L32.4638 17.8298Z" fill="#0C0C0C"/>
<path d="M29.7592 18.1709C29.4231 18.11 29.0753 18.1324 28.7519 18.2357C28.5921 18.2859 28.4414 18.3577 28.305 18.4486C28.1691 18.5384 28.0461 18.6434 27.939 18.7613C27.9282 18.773 27.9228 18.7881 27.9239 18.8033C27.925 18.8186 27.9325 18.8329 27.945 18.8432C27.9574 18.8535 27.9737 18.859 27.9905 18.8586C28.0073 18.8582 28.0232 18.8519 28.035 18.841L28.0385 18.8377C28.1418 18.7316 28.2594 18.6378 28.3884 18.5584C28.516 18.479 28.6561 18.4177 28.8039 18.3765C29.0972 18.2925 29.4097 18.2808 29.7095 18.3427L29.7169 18.3445C29.7421 18.35 29.7687 18.3462 29.7908 18.3339C29.8129 18.3217 29.8287 18.3019 29.8348 18.2789C29.8409 18.256 29.8368 18.2318 29.8233 18.2116C29.8098 18.1915 29.7881 18.1771 29.7629 18.1715L29.7592 18.1709Z" fill="#0C0C0C"/>
<path d="M24.0268 20.097C26.0162 19.4219 26.6764 18.1698 26.8797 17.2379C27.0113 16.6165 26.999 15.9768 26.8436 15.3599L26.782 15.3754C26.9351 15.9842 26.9469 16.6155 26.8168 17.2287C26.616 18.1453 25.9653 19.3775 24.0045 20.0426L24.0268 20.097Z" fill="#0C0C0C"/>
<path d="M39.7325 30.261L58.6225 36.0163L53.0764 38.2633L62.4956 20.6507L70.1936 23.9207L61.4543 41.8219C61.0123 42.7271 60.2277 43.4572 59.2439 43.8787C58.2601 44.3002 57.1427 44.385 56.096 44.1175L55.9081 44.069L36.7322 39.1618L39.7325 30.261Z" fill="#367CFF"/>
<path d="M27.8579 32.9386C23.5044 32.7516 23.3212 29.3836 23.3212 29.3836C23.3212 29.3836 21.1641 29.5107 19.7302 29.6875C17.3826 29.977 15.8339 30.7026 14.6014 31.8259C13.4549 32.871 12.7569 34.0016 13.4955 41.2201C14.0303 46.4468 13.654 57.9433 13.654 57.9433H40.1832C40.1832 57.9433 42.0357 41.334 42.2554 38.9816C42.6745 34.4901 43.8586 33.4986 41.4594 31.1849C39.7195 29.507 35.2278 29.3836 33.4198 29.3839C33.3903 29.3839 33.7867 33.1934 27.8579 32.9386Z" fill="#367CFF"/>
<path d="M32.9526 22.6178C32.0972 23.0143 31.1212 23.1396 30.1789 22.9741C30.1463 22.9685 30.1126 22.9715 30.0818 22.9828C30.0509 22.994 30.0243 23.013 30.0048 23.0375C29.9854 23.062 29.974 23.0911 29.972 23.1213C29.9701 23.1515 29.9775 23.1816 29.9936 23.2081C30.2745 23.6592 30.9409 24.4302 32.084 24.1159C32.8221 23.9129 33.1011 23.2209 33.2046 22.7926C33.2116 22.763 33.2093 22.7322 33.1978 22.7037C33.1863 22.6753 33.1662 22.6504 33.1397 22.6321C33.1132 22.6137 33.0816 22.6026 33.0484 22.6001C33.0153 22.5976 32.9821 22.6037 32.9526 22.6178Z" fill="white"/>
<path d="M33.0064 19.1511C33.2347 19.1511 33.4198 18.9824 33.4198 18.7743C33.4198 18.5662 33.2347 18.3975 33.0064 18.3975C32.7781 18.3975 32.5931 18.5662 32.5931 18.7743C32.5931 18.9824 32.7781 19.1511 33.0064 19.1511Z" fill="#0C0C0C"/>
<path d="M29.0342 19.7843C29.2624 19.7843 29.4475 19.6156 29.4475 19.4076C29.4475 19.1995 29.2624 19.0308 29.0342 19.0308C28.8059 19.0308 28.6208 19.1995 28.6208 19.4076C28.6208 19.6156 28.8059 19.7843 29.0342 19.7843Z" fill="#0C0C0C"/>
<path d="M42.196 40.6178C42.1933 40.618 42.1906 40.618 42.1879 40.6178C42.1712 40.6159 42.1559 40.608 42.1455 40.5959C42.1351 40.5837 42.1304 40.5683 42.1325 40.553L42.5433 37.5177C42.5442 37.5101 42.5467 37.5027 42.5508 37.496C42.5549 37.4893 42.5604 37.4834 42.5671 37.4787C42.5737 37.4739 42.5813 37.4705 42.5895 37.4685C42.5976 37.4666 42.6061 37.4661 42.6144 37.4672C42.6228 37.4681 42.6308 37.4706 42.6381 37.4743C42.6454 37.4781 42.6518 37.4831 42.657 37.4892C42.6621 37.4952 42.6659 37.5021 42.6682 37.5095C42.6704 37.5169 42.671 37.5246 42.67 37.5321L42.2592 40.5673C42.2571 40.5813 42.2496 40.5941 42.238 40.6034C42.2264 40.6127 42.2114 40.6178 42.196 40.6178Z" fill="#0C0C0C"/>
<path d="M36.9198 46.7912L40.9133 45.1655C41.0011 45.1298 41.096 45.1112 41.1921 45.1108C41.2882 45.1103 41.3834 45.1281 41.4715 45.1631C41.5596 45.198 41.6388 45.2493 41.704 45.3136C41.7692 45.378 41.819 45.454 41.8502 45.5368C41.9026 45.6914 41.8902 45.8582 41.8153 46.0049C41.7405 46.1516 41.6085 46.2677 41.445 46.3308L40.5887 46.6799L43.8336 46.7104C44.1945 46.708 44.6389 46.9155 44.6151 47.2846C44.6162 47.4272 44.5642 47.5659 44.4676 47.6781C44.371 47.7902 44.2356 47.8693 44.0834 47.9023C44.0843 47.9054 44.0848 47.9085 44.0849 47.9117C44.0846 47.9141 44.084 47.9165 44.0833 47.9188L44.6398 47.9152C44.7428 47.9146 44.8446 47.9349 44.9379 47.9747C45.0312 48.0145 45.1135 48.0728 45.179 48.1453C45.2445 48.2177 45.2914 48.3026 45.3163 48.3937C45.3413 48.4847 45.3436 48.5798 45.3232 48.6718C45.2877 48.8162 45.1989 48.9451 45.0716 49.0369C44.9443 49.1288 44.7863 49.178 44.6239 49.1763L44.3872 49.1778C44.3841 49.1841 44.3797 49.1898 44.3744 49.1947C44.5346 49.2275 44.6768 49.3112 44.7756 49.4308C44.8743 49.5503 44.9232 49.698 44.9134 49.8474C44.8976 50.0107 44.8148 50.1625 44.6815 50.2725C44.5483 50.3826 44.3744 50.4427 44.1946 50.4411L43.6064 50.4449C43.6147 50.4502 43.6215 50.4571 43.6263 50.4652C43.6311 50.4733 43.6337 50.4823 43.634 50.4915C43.6335 50.5024 43.6295 50.5131 43.6225 50.5221C43.7564 50.5874 43.8629 50.691 43.9258 50.8169C43.9888 50.9428 44.0045 51.0841 43.9708 51.219C43.9321 51.36 43.8424 51.4849 43.7161 51.5737C43.5899 51.6624 43.4345 51.7097 43.2751 51.7079L38.3127 51.7401C37.6186 51.7446 36.9388 51.5601 36.3604 51.2102C35.782 50.8603 35.3315 50.3609 35.0665 49.7761C34.838 49.2718 34.8343 48.7062 35.056 48.1995C35.2778 47.6927 35.7076 47.2847 36.2541 47.0622L36.9198 46.7912Z" fill="#E98862"/>
<g opacity="0.2">
<path d="M40.8714 47.8855C40.8717 47.9008 40.8785 47.9154 40.8904 47.9261C40.9024 47.9368 40.9185 47.9429 40.9353 47.9428L44.0212 47.9681C44.0382 47.9682 44.0545 47.9622 44.0665 47.9514C44.0786 47.9406 44.0855 47.9259 44.0856 47.9104C44.0858 47.895 44.0792 47.8801 44.0673 47.8691C44.0555 47.8581 44.0393 47.8519 44.0224 47.8517L40.9364 47.8263C40.9195 47.8263 40.9032 47.8325 40.8913 47.8434C40.8793 47.8543 40.8726 47.8691 40.8726 47.8845L40.8714 47.8855Z" fill="#0C0C0C"/>
</g>
<g opacity="0.2">
<path d="M40.821 49.1263C40.8212 49.1416 40.8281 49.1562 40.84 49.167C40.852 49.1777 40.8681 49.1837 40.8849 49.1837L44.3287 49.212C44.3457 49.212 44.3619 49.2059 44.3739 49.1949C44.3859 49.184 44.3926 49.1692 44.3926 49.1538C44.392 49.1385 44.3851 49.124 44.3733 49.1132C44.3614 49.1024 44.3455 49.0961 44.3287 49.0956L40.8849 49.0673C40.8764 49.0672 40.8681 49.0687 40.8602 49.0716C40.8524 49.0745 40.8453 49.0787 40.8393 49.0842C40.8333 49.0896 40.8285 49.096 40.8253 49.1031C40.822 49.1102 40.8204 49.1178 40.8204 49.1255L40.821 49.1263Z" fill="#0C0C0C"/>
</g>
<g opacity="0.2">
<path d="M40.7575 50.4684C40.7578 50.4837 40.7646 50.4983 40.7766 50.509C40.7885 50.5198 40.8046 50.5258 40.8214 50.5258L43.5686 50.5484C43.5855 50.5485 43.6018 50.5425 43.6139 50.5317C43.626 50.5209 43.6328 50.5061 43.633 50.4907C43.6331 50.4753 43.6265 50.4604 43.6147 50.4494C43.6028 50.4384 43.5866 50.4321 43.5697 50.432L40.8225 50.4094C40.8056 50.4094 40.7894 50.4155 40.7774 50.4264C40.7654 50.4374 40.7587 50.4522 40.7587 50.4676L40.7575 50.4684Z" fill="#0C0C0C"/>
</g>
<path d="M38.0629 53.2718L15.9218 57.8594C15.1862 57.9324 14.4422 57.849 13.7479 57.6158C13.0537 57.3827 12.4281 57.006 11.9204 56.5155C11.4127 56.025 11.0366 55.4339 10.8216 54.7886C10.6066 54.1433 10.5586 53.4614 10.6813 52.7963L13.2151 34.22C13.4258 33.0785 14.1255 32.06 15.1601 31.3886C16.1947 30.7172 17.4795 30.4479 18.732 30.64C19.9844 30.832 21.1018 31.4697 21.8384 32.4127C22.5751 33.3558 22.8705 34.5269 22.6598 35.6684L21.4396 48.9646L36.8226 45.7915L38.0629 53.2718Z" fill="#367CFF"/>
<path d="M18.3264 49.4877C18.3103 49.4876 18.2949 49.482 18.2832 49.472C18.2715 49.462 18.2644 49.4484 18.2632 49.4338C18.262 49.4192 18.2669 49.4048 18.2769 49.3933C18.2869 49.3819 18.3012 49.3743 18.317 49.372L21.4023 48.7716C21.4106 48.7703 21.4191 48.7706 21.4273 48.7724C21.4355 48.7742 21.4432 48.7775 21.4499 48.7821C21.4567 48.7866 21.4624 48.7924 21.4667 48.799C21.471 48.8055 21.4737 48.8129 21.4749 48.8205C21.4774 48.8357 21.4731 48.8512 21.4631 48.8636C21.453 48.876 21.438 48.8843 21.4212 48.8866L18.3359 49.487C18.3328 49.4875 18.3296 49.4877 18.3264 49.4877Z" fill="#0C0C0C"/>
<path d="M16.5856 57.9437C16.5686 57.9447 16.552 57.9395 16.5392 57.9293C16.5265 57.9191 16.5187 57.9047 16.5176 57.8892C16.5165 57.8738 16.5221 57.8586 16.5333 57.847C16.5445 57.8354 16.5603 57.8283 16.5773 57.8273L37.9235 53.2448L36.714 45.8771L21.4228 48.8858C21.4129 48.887 21.4028 48.886 21.3934 48.883C21.384 48.88 21.3755 48.8751 21.3685 48.8686C21.3615 48.8621 21.3563 48.8541 21.3534 48.8454C21.3504 48.8367 21.3497 48.8275 21.3514 48.8185L22.2091 41.2215C22.2104 41.2139 22.2133 41.2066 22.2178 41.2001C22.2222 41.1936 22.228 41.1879 22.2348 41.1835C22.2417 41.179 22.2495 41.1759 22.2577 41.1742C22.2659 41.1725 22.2744 41.1724 22.2827 41.1738C22.2994 41.1763 22.3143 41.1848 22.3241 41.1974C22.3339 41.21 22.3378 41.2256 22.335 41.2408L21.4922 48.7598L36.7437 45.7487C36.7519 45.7466 36.7605 45.7461 36.7689 45.7471C36.7774 45.7481 36.7855 45.7506 36.7929 45.7545C36.8002 45.7585 36.8066 45.7637 36.8117 45.7699C36.8168 45.7761 36.8205 45.7832 36.8226 45.7907L38.063 53.2716C38.0669 53.2863 38.0644 53.3019 38.0559 53.3149C38.0475 53.3279 38.0339 53.3375 38.0179 53.3415L16.5939 57.9432C16.5911 57.9435 16.5883 57.9437 16.5856 57.9437Z" fill="#0C0C0C"/>
</svg>
